# xmcd CD database file
#
# Track frame offsets:
#	183
#	33120
#	50895
#	84218
#	122745
#	145245
#
# Disc length: 2283 seconds
#
# Revision: 0
# Processed by: cddbd v1.5.1PL0 Copyright (c) Steve Scherf et al.
# Submitted via: CDex 1.51
#
DISCID=4908e906
DTITLE=Luigi Bonafede - Another Side Of Me
DYEAR=1900
DGENRE=Jazz
TTITLE0=Original Untitled
TTITLE1=Agnese (dedicatet to Larry Nocella)
TTITLE2=Atmosfera
TTITLE3=Marilù
TTITLE4=Lorella
TTITLE5=Come On (dedicated to Mr Elvin Jones)
EXTD=
EXTT0=
EXTT1=
EXTT2=
EXTT3=
EXTT4=
EXTT5=
PLAYORDER=
